# xmcd CD database file
#
# Track frame offsets:
#	150
#	20897
#	41732
#	62435
#
# Disc length: 1107 seconds
#
# Revision: 1
# Processed by: cddbd v1.5.2PL0 Copyright (c) Steve Scherf et al.
# Submitted via: CD2WAV32(JP) R3.22
#
DISCID=30045104
DTITLE=猿岩石 - 君の青空｜声が聴こえる
DYEAR=1997
DGENRE=JPop
TTITLE0=君の青空
TTITLE1=声が聴こえる
TTITLE2=君の青空（オリジナル・カラオケ）
TTITLE3=声が聴こえる（オリジナル・カラオケ）
EXTD=
EXTT0=
EXTT1=
EXTT2=
EXTT3=
PLAYORDER=
